<svg xmlns="http://www.w3.org/2000/svg" width="33" height="32" viewBox="0 0 33 32" fill="none">
<path d="M9.59998 27.4667C11.6 28.6667 14 29.3334 16.4 29.3334C23.7333 29.3334 29.7333 23.3334 29.7333 16.0001C29.7333 8.66675 23.7333 2.66675 16.4 2.66675C9.06665 2.66675 3.06665 8.66675 3.06665 16.0001C3.06665 18.4001 3.73332 20.6667 4.79998 22.6667L3.50709 27.6394C3.31237 28.3883 4.00557 29.0651 4.74964 28.8526L9.59998 27.4667Z" stroke="white" stroke-width="2.5" stroke-miterlimit="10" stroke-linecap="round" stroke-linejoin="round"/>
<path d="M22.3999 19.798C22.3999 20.014 22.3518 20.236 22.2497 20.452C22.1475 20.668 22.0153 20.872 21.8411 21.064C21.5466 21.388 21.2221 21.622 20.8556 21.772C20.495 21.922 20.1045 22 19.6838 22C19.0709 22 18.4159 21.856 17.7249 21.562C17.0339 21.268 16.3428 20.872 15.6578 20.374C14.9668 19.87 14.3118 19.312 13.6868 18.694C13.0679 18.07 12.5091 17.416 12.0103 16.732C11.5176 16.048 11.121 15.364 10.8326 14.686C10.5441 14.002 10.3999 13.348 10.3999 12.724C10.3999 12.316 10.472 11.926 10.6162 11.566C10.7604 11.2 10.9888 10.864 11.3073 10.564C11.6918 10.186 12.1125 10 12.5571 10C12.7254 10 12.8936 10.036 13.0439 10.108C13.2001 10.18 13.3383 10.288 13.4465 10.444L14.8406 12.406C14.9487 12.556 15.0268 12.694 15.0809 12.826C15.135 12.952 15.1651 13.078 15.1651 13.192C15.1651 13.336 15.123 13.48 15.0389 13.618C14.9607 13.756 14.8466 13.9 14.7024 14.044L14.2457 14.518C14.1796 14.584 14.1495 14.662 14.1495 14.758C14.1495 14.806 14.1555 14.848 14.1676 14.896C14.1856 14.944 14.2036 14.98 14.2156 15.016C14.3238 15.214 14.5101 15.472 14.7745 15.784C15.0449 16.096 15.3333 16.414 15.6458 16.732C15.9703 17.05 16.2827 17.344 16.6012 17.614C16.9137 17.878 17.1721 18.058 17.3764 18.166C17.4064 18.178 17.4425 18.196 17.4845 18.214C17.5326 18.232 17.5807 18.238 17.6348 18.238C17.7369 18.238 17.815 18.202 17.8811 18.136L18.3378 17.686C18.488 17.536 18.6323 17.422 18.7705 17.35C18.9087 17.266 19.0469 17.224 19.1971 17.224C19.3113 17.224 19.4314 17.248 19.5636 17.302C19.6958 17.356 19.8341 17.434 19.9843 17.536L21.9733 18.946C22.1295 19.054 22.2377 19.18 22.3038 19.33C22.3638 19.48 22.3999 19.63 22.3999 19.798Z" stroke="white" stroke-width="2" stroke-miterlimit="10"/>
</svg>