<svg width="27" height="40" viewBox="0 0 27 40" fill="none" xmlns="http://www.w3.org/2000/svg">
<path d="M2.6 40C1.9 40 1.28333 39.75 0.75 39.25C0.25 38.75 7.45058e-08 38.1333 7.45058e-08 37.4V3.55C7.45058e-08 2.81666 0.25 2.2 0.75 1.7C1.28333 1.2 1.9 0.949999 2.6 0.949999C3.33333 0.949999 3.95 1.2 4.45 1.7C4.95 2.2 5.2 2.81666 5.2 3.55V18.55L21.75 2C22.15 1.6 22.5167 1.33333 22.85 1.2C23.1833 1.03333 23.5333 0.949999 23.9 0.949999C24.7333 0.949999 25.3333 1.2 25.7 1.7C26.0667 2.2 26.2 2.8 26.1 3.5C26 4.16667 25.6833 4.78333 25.15 5.35L12.4 18.15L25.4 35.85C25.8 36.4167 25.9667 37.0333 25.9 37.7C25.8333 38.3333 25.6 38.8833 25.2 39.35C24.8 39.7833 24.2667 40 23.6 40C22.6667 40 21.95 39.6333 21.45 38.9L8.8 21.75L5.2 25.35V37.4C5.2 38.1333 4.95 38.75 4.45 39.25C3.95 39.75 3.33333 40 2.6 40Z" fill="#2B7FFF"/>
</svg>
