<svg width="1610" height="2124" viewBox="0 0 1610 2124" fill="none" xmlns="http://www.w3.org/2000/svg">
<ellipse cx="805" cy="904" rx="804" ry="904" fill="#0099FF"/>
<rect x="1" y="898" width="1608" height="713" fill="#0099FF"/>
<path d="M2.10864 1895.5L55.6753 1867.05C109.242 1838.6 216.375 1781.7 323.509 1791.12C430.642 1801.26 537.776 1875.94 644.909 1942.98C752.042 2009.3 859.176 2066.2 966.309 2047.17C1073.44 2028.86 1180.58 1932.84 1287.71 1933.37C1394.84 1932.84 1501.98 2028.86 1555.54 2075.62L1609.11 2123.1V1611H1555.54C1501.98 1611 1394.84 1611 1287.71 1611C1180.58 1611 1073.44 1611 966.309 1611C859.176 1611 752.042 1611 644.909 1611C537.776 1611 430.642 1611 323.509 1611C216.375 1611 109.242 1611 55.6753 1611H2.10864V1895.5Z" fill="#0099FF"/>
</svg>
